<svg width="28" height="28" viewBox="0 0 28 28" fill="none" xmlns="http://www.w3.org/2000/svg">
<g clip-path="url(#clip0_97_684)">
<path d="M4.6665 9.33342C4.6665 8.09574 5.15817 6.90875 6.03334 6.03358C6.90851 5.15841 8.09549 4.66675 9.33317 4.66675H18.6665C19.9042 4.66675 21.0912 5.15841 21.9663 6.03358C22.8415 6.90875 23.3332 8.09574 23.3332 9.33342V18.6667C23.3332 19.9044 22.8415 21.0914 21.9663 21.9666C21.0912 22.8417 19.9042 23.3334 18.6665 23.3334H9.33317C8.09549 23.3334 6.90851 22.8417 6.03334 21.9666C5.15817 21.0914 4.6665 19.9044 4.6665 18.6667V9.33342Z" stroke="white" stroke-width="1.5" stroke-linecap="round" stroke-linejoin="round"/>
<path d="M10.5 14C10.5 14.9283 10.8687 15.8185 11.5251 16.4749C12.1815 17.1313 13.0717 17.5 14 17.5C14.9283 17.5 15.8185 17.1313 16.4749 16.4749C17.1313 15.8185 17.5 14.9283 17.5 14C17.5 13.0717 17.1313 12.1815 16.4749 11.5251C15.8185 10.8687 14.9283 10.5 14 10.5C13.0717 10.5 12.1815 10.8687 11.5251 11.5251C10.8687 12.1815 10.5 13.0717 10.5 14Z" stroke="white" stroke-width="1.5" stroke-linecap="round" stroke-linejoin="round"/>
<path d="M19.25 8.75V8.76167" stroke="white" stroke-width="1.5" stroke-linecap="round" stroke-linejoin="round"/>
</g>
<defs>
<clipPath id="clip0_97_684">
<rect width="28" height="28" fill="white"/>
</clipPath>
</defs>
</svg>
