<svg width="123" height="19" viewBox="0 0 123 19" fill="none" xmlns="http://www.w3.org/2000/svg">
<path d="M10.7812 0.997114H14.4715V12.3323C14.4715 13.6051 14.1676 14.7187 13.5596 15.6733C12.9573 16.6278 12.1136 17.3721 11.0284 17.9062C9.94314 18.4346 8.67893 18.6988 7.23575 18.6988C5.78689 18.6988 4.51984 18.4346 3.43461 17.9062C2.34939 17.3721 1.50564 16.6278 0.903365 15.6733C0.301092 14.7187 -4.44055e-05 13.6051 -4.44055e-05 12.3323V0.997114H3.6903V12.017C3.6903 12.6818 3.83518 13.2727 4.12496 13.7897C4.42041 14.3068 4.83518 14.713 5.36927 15.0085C5.90336 15.3039 6.52552 15.4517 7.23575 15.4517C7.95166 15.4517 8.57382 15.3039 9.10223 15.0085C9.63632 14.713 10.0483 14.3068 10.338 13.7897C10.6335 13.2727 10.7812 12.6818 10.7812 12.017V0.997114ZM17.3714 18.4517V16.2869L23.7805 8.35223V8.25848H17.593V5.36075H28.1527V7.72155L22.1356 15.4602V15.5539H28.3742V18.4517H17.3714ZM29.7336 4.03973V0.997114H44.0688V4.03973H38.7251V18.4517H35.0774V4.03973H29.7336ZM50.3778 18.7073C49.0539 18.7073 47.909 18.4261 46.9431 17.8636C45.9829 17.2954 45.2414 16.5056 44.7187 15.4943C44.196 14.4772 43.9346 13.2983 43.9346 11.9573C43.9346 10.6051 44.196 9.42325 44.7187 8.41189C45.2414 7.39484 45.9829 6.60507 46.9431 6.04257C47.909 5.47439 49.0539 5.1903 50.3778 5.1903C51.7017 5.1903 52.8437 5.47439 53.8039 6.04257C54.7698 6.60507 55.5142 7.39484 56.0369 8.41189C56.5596 9.42325 56.821 10.6051 56.821 11.9573C56.821 13.2983 56.5596 14.4772 56.0369 15.4943C55.5142 16.5056 54.7698 17.2954 53.8039 17.8636C52.8437 18.4261 51.7017 18.7073 50.3778 18.7073ZM50.3948 15.8948C50.9971 15.8948 51.5 15.7244 51.9034 15.3835C52.3068 15.0369 52.6108 14.5653 52.8153 13.9687C53.0255 13.3721 53.1306 12.6931 53.1306 11.9318C53.1306 11.1704 53.0255 10.4914 52.8153 9.89484C52.6108 9.29825 52.3068 8.82666 51.9034 8.48007C51.5 8.13348 50.9971 7.96018 50.3948 7.96018C49.7869 7.96018 49.2755 8.13348 48.8608 8.48007C48.4517 8.82666 48.142 9.29825 47.9318 9.89484C47.7272 10.4914 47.625 11.1704 47.625 11.9318C47.625 12.6931 47.7272 13.3721 47.9318 13.9687C48.142 14.5653 48.4517 15.0369 48.8608 15.3835C49.2755 15.7244 49.7869 15.8948 50.3948 15.8948ZM67.5767 12.8778V5.36075H71.2073V18.4517H67.7215V16.0738H67.5852C67.2897 16.8409 66.7983 17.4573 66.1108 17.9233C65.4289 18.3892 64.5965 18.6221 63.6136 18.6221C62.7386 18.6221 61.9687 18.4233 61.3039 18.0255C60.6392 17.6278 60.1193 17.0625 59.7443 16.3295C59.375 15.5965 59.1875 14.7187 59.1818 13.696V5.36075H62.8125V13.0483C62.8181 13.821 63.0255 14.4318 63.4346 14.8806C63.8437 15.3295 64.392 15.5539 65.0795 15.5539C65.517 15.5539 65.9261 15.4545 66.3068 15.2556C66.6875 15.0511 66.9943 14.75 67.2272 14.3522C67.4659 13.9545 67.5823 13.463 67.5767 12.8778ZM74.1115 18.4517V5.36075H77.6313V7.64484H77.7677C78.0063 6.83234 78.4069 6.21871 78.9694 5.80393C79.5319 5.38348 80.1796 5.17325 80.9126 5.17325C81.0944 5.17325 81.2904 5.18461 81.5007 5.20734C81.7109 5.23007 81.8956 5.26132 82.0546 5.30109V8.52268C81.8842 8.47155 81.6484 8.42609 81.3473 8.38632C81.0461 8.34655 80.7706 8.32666 80.5206 8.32666C79.9865 8.32666 79.5092 8.44314 79.0887 8.67609C78.674 8.90336 78.3444 9.22155 78.1001 9.63064C77.8615 10.0397 77.7421 10.5113 77.7421 11.0454V18.4517H74.1115ZM83.9318 18.4517V5.36075H87.5625V18.4517H83.9318ZM85.7556 3.67325C85.2159 3.67325 84.7528 3.49427 84.3664 3.13632C83.9858 2.77268 83.7954 2.33802 83.7954 1.83234C83.7954 1.33234 83.9858 0.903364 84.3664 0.54541C84.7528 0.181773 85.2159 -4.52995e-05 85.7556 -4.52995e-05C86.2954 -4.52995e-05 86.7556 0.181773 87.1363 0.54541C87.5227 0.903364 87.7159 1.33234 87.7159 1.83234C87.7159 2.33802 87.5227 2.77268 87.1363 3.13632C86.7556 3.49427 86.2954 3.67325 85.7556 3.67325ZM101.363 9.09371L98.039 9.29825C97.9822 9.01416 97.86 8.75848 97.6725 8.53121C97.485 8.29825 97.2379 8.11359 96.9311 7.97723C96.6299 7.83518 96.2691 7.76416 95.8487 7.76416C95.2862 7.76416 94.8117 7.88348 94.4254 8.12211C94.039 8.35507 93.8458 8.66757 93.8458 9.05961C93.8458 9.37211 93.9708 9.63632 94.2208 9.85223C94.4708 10.0681 94.8998 10.2414 95.5078 10.3721L97.8771 10.8494C99.1498 11.1108 100.099 11.5312 100.724 12.1108C101.349 12.6903 101.661 13.4517 101.661 14.3948C101.661 15.2528 101.408 16.0056 100.903 16.6534C100.403 17.3011 99.7152 17.8068 98.8402 18.1704C97.9708 18.5284 96.968 18.7073 95.8316 18.7073C94.0987 18.7073 92.718 18.3465 91.6896 17.625C90.6669 16.8977 90.0674 15.909 89.8913 14.659L93.4623 14.4715C93.5703 15 93.8316 15.4034 94.2464 15.6818C94.6612 15.9545 95.1924 16.0909 95.8402 16.0909C96.4765 16.0909 96.9879 15.9687 97.3742 15.7244C97.7663 15.4744 97.9652 15.1534 97.9708 14.7613C97.9652 14.4318 97.826 14.1619 97.5532 13.9517C97.2805 13.7358 96.86 13.571 96.2919 13.4573L94.0248 13.0056C92.7464 12.75 91.7947 12.3068 91.1697 11.6761C90.5504 11.0454 90.2407 10.2414 90.2407 9.26416C90.2407 8.42325 90.468 7.69882 90.9225 7.09086C91.3828 6.48291 92.0277 6.01416 92.8572 5.68461C93.6924 5.35507 94.6697 5.1903 95.789 5.1903C97.4424 5.1903 98.7436 5.53973 99.6924 6.23859C100.647 6.93746 101.204 7.88916 101.363 9.09371ZM103.947 18.4517V5.36075H107.408V7.67041H107.561C107.834 6.90336 108.288 6.29825 108.925 5.85507C109.561 5.41189 110.322 5.1903 111.209 5.1903C112.106 5.1903 112.871 5.41473 113.501 5.86359C114.132 6.30677 114.553 6.90905 114.763 7.67041H114.899C115.166 6.92041 115.649 6.32098 116.348 5.87211C117.053 5.41757 117.885 5.1903 118.845 5.1903C120.067 5.1903 121.058 5.5795 121.82 6.35791C122.587 7.13064 122.97 8.22723 122.97 9.64768V18.4517H119.348V10.3636C119.348 9.63632 119.155 9.09086 118.768 8.72723C118.382 8.36359 117.899 8.18177 117.32 8.18177C116.66 8.18177 116.146 8.392 115.777 8.81246C115.408 9.22723 115.223 9.77552 115.223 10.4573V18.4517H111.703V10.2869C111.703 9.64484 111.518 9.13348 111.149 8.7528C110.785 8.37211 110.305 8.18177 109.709 8.18177C109.305 8.18177 108.942 8.28405 108.618 8.48859C108.3 8.68746 108.047 8.96871 107.859 9.33234C107.672 9.6903 107.578 10.1108 107.578 10.5937V18.4517H103.947Z" fill="white"/>
</svg>
