<svg width="28" height="28" viewBox="0 0 28 28" fill="none" xmlns="http://www.w3.org/2000/svg">
<g clip-path="url(#clip0_97_690)">
<path d="M2.3335 9.33342C2.3335 8.09574 2.82516 6.90875 3.70033 6.03358C4.5755 5.15841 5.76249 4.66675 7.00016 4.66675H21.0002C22.2378 4.66675 23.4248 5.15841 24.3 6.03358C25.1752 6.90875 25.6668 8.09574 25.6668 9.33342V18.6667C25.6668 19.9044 25.1752 21.0914 24.3 21.9666C23.4248 22.8417 22.2378 23.3334 21.0002 23.3334H7.00016C5.76249 23.3334 4.5755 22.8417 3.70033 21.9666C2.82516 21.0914 2.3335 19.9044 2.3335 18.6667V9.33342Z" stroke="white" stroke-width="1.5" stroke-linecap="round" stroke-linejoin="round"/>
<path d="M11.6665 10.5L17.4998 14L11.6665 17.5V10.5Z" stroke="white" stroke-width="1.5" stroke-linecap="round" stroke-linejoin="round"/>
</g>
<defs>
<clipPath id="clip0_97_690">
<rect width="28" height="28" fill="white"/>
</clipPath>
</defs>
</svg>
